<svg version="1.1" baseProfile="full" width="20%" height="20%"
	xmlns="http://www.w3.org/2000/svg" viewBox="0 0 1050 570">
	
		<rect x="0" y="0" width="100%" height="100%" fill="lightblue"/>
		<path x="0" y="0" id="groelandia" style="stroke:#000000; fill:grey" d="m279.41 13.029c-0.66 0.042-1.11 0.176-1.23 0.362-0.3 0.497-1.55 0.619-2.82 0.289-1.26-0.33-3.21-0.201-4.34 0.289-1.12 0.491-2.63 0.799-3.36 0.687-1.24-0.191-2.99 2.523-3.25 5.062-0.07 0.636-2.32 0.999-5.03 0.796-3.61-0.272-4.86 0.037-4.63 1.156 0.21 1.005-0.94 1.546-3.39 1.591-2.06 0.038-4.08 0.429-4.52 0.868s-2.68 0.856-4.96 0.94l-4.15 0.145 4.05 0.723c2.22 0.393 3.78 1.089 3.47 1.554-0.32 0.465 0.6 1.69 2.06 2.712 2.04 1.429 3.02 1.571 4.26 0.542 1.08-0.895 2.32-0.991 3.73-0.253 5.4 2.837 11.24 2.717 17.03-0.361 3.97-2.115 6.04-2.633 6.9-1.772 1.86 1.859-1.15 4.03-9.11 6.653-5.09 1.676-7.61 1.987-9.47 1.157-2.7-1.206-6.15-0.453-6.15 1.337 0 1.832 8.24 6.052 10.45 5.351 2.71-0.861 3.89 1.072 1.74 2.856-2.38 1.976-13.92 0.09-13.92-2.277 0-0.949-0.91-2.405-1.99-3.218-1.09-0.813-1.67-2.255-1.3-3.218s0.23-1.645-0.33-1.518c-1.19 0.272-4.92-1.003-7.37-2.531-3.45-2.144-4.66-2.488-6.62-1.736-1.71 0.655-1.75 0.922-0.29 1.844 1.69 1.07 1.38 1.27-2.64 1.591-0.79 0.064-2.05 0.875-2.78 1.808-1.68 2.145 1.14 4.548 5.38 4.628 1.59 0.03 3.68 0.585 4.63 1.193 1.36 0.864 0.91 1.267-2.13 1.88-3.13 0.63-3.55 0.994-2.03 1.844 1.04 0.581 1.6 1.536 1.23 2.133-0.37 0.605 1.32 1.084 3.84 1.084 3.04 0 5.2-0.756 6.61-2.313 1.61-1.773 2.45-2.014 3.65-1.013 0.87 0.718 3.14 2.152 5.06 3.182 1.93 1.03 3.6 2.401 3.69 3.037 0.3 1.953-3.6 2-5.53 0.072-1-1.001-1.29-1.808-0.65-1.808s1.49 0.521 1.88 1.157c0.39 0.637 1.58 1.157 2.64 1.157 1.49 0 1.31-0.433-0.76-1.88-2.21-1.547-3.19-1.618-5.71-0.47-2.74 1.247-2.86 1.516-1.05 2.531 2.12 1.187 1.68 3.321-0.69 3.29-0.83-0.01-0.68-0.483 0.36-1.157 0.96-0.617 1.22-1.121 0.58-1.121-1.9 0-4.62 2.104-3.79 2.929 0.42 0.421 5.29 0.947 10.84 1.193s10.38 0.727 10.7 1.049c0.83 0.825 1.29 0.767 5.61-0.796 3.98-1.44 5.4-3.444 1.77-2.495-2.87 0.751-8.65-1.644-7.7-3.181 0.43-0.69 2.03-0.932 3.58-0.542 1.67 0.419 4.34-0.083 6.54-1.23 2.04-1.064 4.44-2.279 5.35-2.711 0.92-0.433 1.89-1.475 2.17-2.314 0.37-1.107-0.27-1.318-2.35-0.796-1.58 0.397-3.21 0.371-3.61-0.036-1.32-1.313 1.76-3.832 4.66-3.832 1.55 0 2.5-0.493 2.13-1.085-1.18-1.911 1.28-2.335 5.07-0.904 3.04 1.148 3.86 1.105 4.7-0.253 0.56-0.907 5.1-3.643 10.08-6.038 4.98-2.394 8.45-4.344 7.7-4.374-0.74-0.031-2.3-0.381-3.47-0.76-1.57-0.51-1.73-0.393-0.58 0.434 1.19 0.851 0.73 1.403-1.98 2.35-3.73 1.298-5.79 0.153-3.33-1.844 0.79-0.639 3.79-1.929 6.65-2.892 6.92-2.326 11.57-4.5 11.57-5.387 0-0.397-1.43-1.564-3.18-2.567-2.3-1.321-4.14-1.549-6.65-0.832-3.83 1.092-6.89 0.477-5.86-1.193 0.99-1.592-4.9-2.537-11.71-1.88-3.3 0.318-8.37 0.111-11.28-0.434-1.46-0.272-2.88-0.418-3.94-0.434-0.27-0.003-0.51-0.013-0.73 0z" />
		<path x="0" y="0" id="groelandia" style="stroke:#000000; fill:grey" d="m279.41 13.029c-0.66 0.042-1.11 0.176-1.23 0.362-0.3 0.497-1.55 0.619-2.82 0.289-1.26-0.33-3.21-0.201-4.34 0.289-1.12 0.491-2.63 0.799-3.36 0.687-1.24-0.191-2.99 2.523-3.25 5.062-0.07 0.636-2.32 0.999-5.03 0.796-3.61-0.272-4.86 0.037-4.63 1.156 0.21 1.005-0.94 1.546-3.39 1.591-2.06 0.038-4.08 0.429-4.52 0.868s-2.68 0.856-4.96 0.94l-4.15 0.145 4.05 0.723c2.22 0.393 3.78 1.089 3.47 1.554-0.32 0.465 0.6 1.69 2.06 2.712 2.04 1.429 3.02 1.571 4.26 0.542 1.08-0.895 2.32-0.991 3.73-0.253 5.4 2.837 11.24 2.717 17.03-0.361 3.97-2.115 6.04-2.633 6.9-1.772 1.86 1.859-1.15 4.03-9.11 6.653-5.09 1.676-7.61 1.987-9.47 1.157-2.7-1.206-6.15-0.453-6.15 1.337 0 1.832 8.24 6.052 10.45 5.351 2.71-0.861 3.89 1.072 1.74 2.856-2.38 1.976-13.92 0.09-13.92-2.277 0-0.949-0.91-2.405-1.99-3.218-1.09-0.813-1.67-2.255-1.3-3.218s0.23-1.645-0.33-1.518c-1.19 0.272-4.92-1.003-7.37-2.531-3.45-2.144-4.66-2.488-6.62-1.736-1.71 0.655-1.75 0.922-0.29 1.844 1.69 1.07 1.38 1.27-2.64 1.591-0.79 0.064-2.05 0.875-2.78 1.808-1.68 2.145 1.14 4.548 5.38 4.628 1.59 0.03 3.68 0.585 4.63 1.193 1.36 0.864 0.91 1.267-2.13 1.88-3.13 0.63-3.55 0.994-2.03 1.844 1.04 0.581 1.6 1.536 1.23 2.133-0.37 0.605 1.32 1.084 3.84 1.084 3.04 0 5.2-0.756 6.61-2.313 1.61-1.773 2.45-2.014 3.65-1.013 0.87 0.718 3.14 2.152 5.06 3.182 1.93 1.03 3.6 2.401 3.69 3.037 0.3 1.953-3.6 2-5.53 0.072-1-1.001-1.29-1.808-0.65-1.808s1.49 0.521 1.88 1.157c0.39 0.637 1.58 1.157 2.64 1.157 1.49 0 1.31-0.433-0.76-1.88-2.21-1.547-3.19-1.618-5.71-0.47-2.74 1.247-2.86 1.516-1.05 2.531 2.12 1.187 1.68 3.321-0.69 3.29-0.83-0.01-0.68-0.483 0.36-1.157 0.96-0.617 1.22-1.121 0.58-1.121-1.9 0-4.62 2.104-3.79 2.929 0.42 0.421 5.29 0.947 10.84 1.193s10.38 0.727 10.7 1.049c0.83 0.825 1.29 0.767 5.61-0.796 3.98-1.44 5.4-3.444 1.77-2.495-2.87 0.751-8.65-1.644-7.7-3.181 0.43-0.69 2.03-0.932 3.58-0.542 1.67 0.419 4.34-0.083 6.54-1.23 2.04-1.064 4.44-2.279 5.35-2.711 0.92-0.433 1.89-1.475 2.17-2.314 0.37-1.107-0.27-1.318-2.35-0.796-1.58 0.397-3.21 0.371-3.61-0.036-1.32-1.313 1.76-3.832 4.66-3.832 1.55 0 2.5-0.493 2.13-1.085-1.18-1.911 1.28-2.335 5.07-0.904 3.04 1.148 3.86 1.105 4.7-0.253 0.56-0.907 5.1-3.643 10.08-6.038 4.98-2.394 8.45-4.344 7.7-4.374-0.74-0.031-2.3-0.381-3.47-0.76-1.57-0.51-1.73-0.393-0.58 0.434 1.19 0.851 0.73 1.403-1.98 2.35-3.73 1.298-5.79 0.153-3.33-1.844 0.79-0.639 3.79-1.929 6.65-2.892 6.92-2.326 11.57-4.5 11.57-5.387 0-0.397-1.43-1.564-3.18-2.567-2.3-1.321-4.14-1.549-6.65-0.832-3.83 1.092-6.89 0.477-5.86-1.193 0.99-1.592-4.9-2.537-11.71-1.88-3.3 0.318-8.37 0.111-11.28-0.434-1.46-0.272-2.88-0.418-3.94-0.434-0.27-0.003-0.51-0.013-0.73 0z" />
		<path x="0" y="0" id="groelandia" style="stroke:#000000; fill:grey" d="m389.43 13.029c-3.09 0.033-5.3 0.622-4.77 1.483 1.33 2.154-2.63 2.491-6.4 0.542-2.81-1.455-4.38-1.648-6.33-0.759-1.78 0.812-2.99 0.804-3.83-0.036-1.61-1.608-4.84-0.3-4.84 1.952 0 2.33 1.88 2.283 2.78-0.072 0.61-1.59 1.1-1.487 3.51 0.831 1.89 1.821 2.44 3.151 1.7 4.05-0.96 1.147-6.8 1.313-12.62 0.361-4.37-0.714-8.02 0.123-7.41 1.7 0.9 2.348-1.33 3.288-3 1.265-1.73-2.082-3.59-2.277-3.19-0.325 0.21 1.016-1.65 1.33-6.65 1.084-6.6-0.325-14.29 1.903-12.54 3.652 1.15 1.155-2.13 4.438-3.8 3.796-0.83-0.319-1.81-0.111-2.17 0.47s-1.3 0.81-2.1 0.506c-1.89-0.727-10.71 3.561-9.22 4.483 0.64 0.392 2.78 0.246 4.78-0.325 4.76-1.367 5.58 0.186 2.35 4.556-1.79 2.417-3.59 3.507-5.79 3.507-1.75 0-3.5 0.546-3.9 1.193-0.4 0.646-1.24 0.844-1.85 0.47-1.44-0.894-9.14 1.662-9.14 3.037 0 1.074 1.4 1.327 9.72 1.554 2.5 0.068 4.76 0.759 5.03 1.555 0.53 1.597-0.43 2.018-7.23 3.254-4.16 0.754-4.34 0.918-1.74 1.591 1.59 0.412 2.63 1.192 2.31 1.735-0.86 1.475 3.71 2.775 6.37 1.808 1.27-0.463 6.44-0.925 11.49-1.049 5.06-0.123 9.6-0.493 10.09-0.795s1.62 0.903 2.53 2.676c0.92 1.772 2.79 4.212 4.12 5.423 1.34 1.21 2.43 2.822 2.43 3.579s0.99 2.267 2.2 3.362c1.53 1.387 2.04 3.025 1.67 5.388-0.62 3.903 1.33 4.664 2.31 0.903 0.53-2.031 0.96-2.244 2.31-1.12 3.95 3.278 2.94 7.321-2.13 8.568-1.59 0.39-1.19 0.595 1.27 0.687 1.96 0.074 4.43 1.109 5.49 2.278 1.8 1.99 1.8 2.271-0.36 4.23-2.18 1.972-2.22 2.149-0.33 3.543 1.85 1.36 1.76 1.6-1.15 2.71-1.75 0.67-3.18 1.8-3.18 2.53 0 0.97 0.47 0.95 1.69-0.07 2.69-2.23 4.59-0.21 2.25 2.39-1.1 1.21-1.52 2.22-0.94 2.24 0.57 0.02 0.1 0.75-1.05 1.63-1.35 1.02-1.64 1.85-0.83 2.35 0.68 0.42 0.88 1.38 0.43 2.13-0.52 0.87-0.17 0.82 1.01-0.15 2.1-1.7 3.57-0.33 2.14 1.99-0.6 0.97 0.22 3.29 2.27 6.33 4.49 6.65 7.67 9.3 11.32 9.36 1.71 0.03 3.17 0.69 3.25 1.49 0.08 0.79 0.21 1.74 0.29 2.09 0.31 1.37 7.11-3.56 7.23-5.24 0.07-0.98 0.04-2.89-0.07-4.27-0.11-1.37 0.34-2.83 1.01-3.25 0.68-0.42 1.23-1.71 1.23-2.89 0-2.49 10.17-11.88 11.79-10.88 0.6 0.36 2.59 0.03 4.41-0.73 3.27-1.35 4.88-3.55 5.1-6.94 0.06-0.95 0.76-1.6 1.55-1.45 0.8 0.16 2.48-0.73 3.73-1.984 1.81-1.812 3.76-2.233 9.58-2.133 4.48 0.076 8.62-0.58 10.74-1.664 1.89-0.969 5.25-2.171 7.48-2.675l4.05-0.904-4.05-0.904c-2.23-0.489-5.15-0.585-6.51-0.253-2.92 0.712-4.87-1.617-2.2-2.639 1-0.386 1.69-1.562 1.51-2.603-0.21-1.314 0.7-1.982 2.97-2.242 2.51-0.287 3.39 0.183 3.87 2.025 0.77 2.932 3.83 3.191 3.83 0.325 0-2.696-6.28-6.403-9.25-5.459-3.16 1-5.11-0.343-3.44-2.35 0.99-1.191 0.7-1.826-1.16-2.82-3.3-1.769-1.71-3.807 2.28-2.929 2.64 0.58 3.21 0.34 3.07-1.338-0.24-2.935 3.76-2.697 7.74 0.47 1.8 1.433 4.12 2.603 5.17 2.603 1.48 0.001 1.32-0.401-0.69-1.807-3.28-2.303-2.31-3.977 2.35-3.977 3.44 0 3.51-0.09 1.38-1.7-1.24-0.934-1.72-1.784-1.09-1.88 0.64-0.095-0.36-0.502-2.24-0.903-4.43-0.951-4.47-2.821-0.07-3.761l3.47-0.723-3.69-0.144c-2.03-0.076-4-0.625-4.37-1.23-1.14-1.835 3.57-3.58 7.55-2.783 2.8 0.558 3.55 0.404 2.9-0.651-0.48-0.778-1.15-1.134-1.49-0.796-1.13 1.131-5.14-1.799-4.55-3.326 0.32-0.828 0-2.057-0.69-2.748-0.9-0.902-0.37-1.58 1.85-2.422 1.69-0.644 3.07-1.954 3.07-2.892 0-0.939 0.91-2.257 2.02-2.965 1.72-1.089 1.57-1.22-0.97-0.687-3.61 0.755-4.99-0.254-3.22-2.386 0.72-0.866 3.54-1.555 6.36-1.555 3.39 0 4.97-0.462 4.78-1.41-0.16-0.78 0.9-1.623 2.35-1.844 1.44-0.221 3.97-1.073 5.6-1.916l2.93-1.519-4.63-0.795c-2.55-0.431-5.56-0.294-6.72 0.325-2.94 1.566-7.62 2.062-9.37 0.977-0.81-0.503-3.01-0.154-4.92 0.795-3.38 1.687-5.52 0.85-4.01-1.591 0.5-0.812-2.04-1.104-7.74-0.831-6.19 0.296-10.44 1.311-15.69 3.687-4.13 1.871-8.01 2.929-9.14 2.495-2.86-1.095-1.08-2.372 9-6.399 5.72-2.288 10.93-3.543 14.64-3.543 3.16 0 7.48-0.793 9.62-1.772l3.9-1.772-6.54 0.687c-6.85 0.726-9.58-0.629-5.93-2.928 2.31-1.458-8.7-0.882-21.01 1.084-3.78 0.605-7.35 0.786-7.91 0.434-1.73-1.064 1.07-2.953 5.74-3.904 4.02-0.818 3.82-0.901-2.53-0.941-3.81-0.023-7.98-0.15-9.25-0.289-1.16-0.126-2.3-0.191-3.33-0.181z" />
		<path x="0" y="0" id="groelandia" style="stroke:#000000; fill:grey" d="m331.22 26.262c1.58 0.01 3.19 1.067 2.53 2.133-0.9 1.463-3.71 1.501-4.59 0.073-0.36-0.593-0.1-1.426 0.58-1.844 0.43-0.265 0.96-0.365 1.48-0.362z" />
		<path x="0" y="0" id="rusia" style="stroke:black; fill:grey" d="m793.47 50.969c-6.04 15.433-27.02 9.164-43 13.652-13.9 0.738 2.09 14.553-15.25 8.41-19.47-4.728 10.98 20.727-3.25 13.031-1.97-8.12-24.53-8.869-10.84 0.449-8.21-2.126-14.01-15.148-12.71 1.441-0.39 5.485 22.62 14.658 11.29 16.868-5.45-22.038-18.99 17.84-24.97 0.22 15.41 9.2 13.27-39.605 0.42-25.821-13.95 5.381 10.18 26.151-9.52 15.772-9.45-5.353-19.25 6.219-20.92 1.165-12.06 5.264-22.67 1.265-34.94 10.534 2.75-5.15-9.31-13.414-4.38-0.2-6.02 3.13-14.12 12.34-21.15 8.99 7.85 16.22-25.13-17.889-2.65-6.95 29.63 2.68-4.42-19.957-16.63-15.672-2.99-3.215 2.47-4.832-7.23-6.188-3.06 4.409-7.62-5.409-11.75 2.892-6.63-0.443-9.97 4.305-17.83 6.25-2.33 8.618-13.28 12.838-19.14 18.678 8.43 12.24-21.86 7.9-12.18 26.7 4.39 9.75 17.85-11.48 17.66 9.28 5.55 14.74 22.58-9.08 14.47-16.76 2.19-8.96 12.5-23.8 21.37-21.43-4.06 6.5-18.85 31.12 2.49 22.93 18.47-1.47 5.77 7.39-5.26 5.99 2.64 9.59-0.06 9.54-7.04 10.42-1.4 13.16-27.61 17.17-33.5 6.41-1.54-16.26 1.36 14.53-10.87 9.59-7.34 6.76-17.66 17.15-28.3 18.47 8.63 4.98 12.67 27.88-6.27 20-18.66 0.1-5.56 37.44 11.9 22.21 7.45-11.3 23.24-35.23 37.72-18.74 10.02 1.73 16.38 26.1 16.54 7.95 5.51 5.21-26.81-25.96-7.44-18.04 10.59 6.11 21.56 31.32 23.78 24.53-1 4.61-5.23 9.77 3.79 2.02-12.56-13.44 18.36-5.5 12.5-22.6 5.97-14 12.25-7.87 18.86-3.17-7.53-7.8 15.8-12.26 7.13-0.4 14.35 5.64 11.33 21.89-5.03 13.31-11.18-5.91-37.97 8.79-19.06 18.25 14.03-3.22 24.73 0.24 14.99 16.3-8.29 9.99-46.53 8.7-40.56 26.85 18.07 5.96 33.62-22.08 42.67-13.62 7.95 17.56 18.93 32.42 23.3 51.91 16.5-2.53 37.71-13.33 45.25-30.02-7.95-5.65-8.56-18.32-17.13-6.25-12.53 4.85-22.15-37.62-4.53-14.54 14.11 11.4 42.09 5.47 50.79 20.46-1.34 10 10.28-7.93 7.44 6.56 0.4 11.55 7.67 37.36 15.27 39.2 1.93-20.41 15.03-39.35 34.67-46.01 12.55 1.73 7.9 27.65 20.5 19.97 0.52 21.43 5.88 14.49 16.4 16.25 1.15 15.52 17.36 5.99 15.94-4.2-2.95-11.13-16.41-31.53 2.97-28.43 13.06-2.81 36.68-17.25 29.74-30.97 7.06-4.35-11.79-20.41 6.11-25.82 0.27 0.55-25.12-1.52-8.7-10.24 13.6-10.54-0.42 12.23 10.42 0.6 10.71-1.74 8.57 30.79 16.5 12.4-9.85-9.84 2.14-25.67 12.51-24.58 13.28-4.86 34.06-45.19 10.65-43.12-12.19-10.87 19.36-28.74 31.97-23.92 14.18 3.84 18.58-3.58 30.02-10.91 8.87-0.17-2.24 11.8 10.38 1.63 12.67-12.25-8.12 14.61-15.16 16.65-9.19 6.32-5.87 38.73 5.74 19.31 3-9.32 12.54-12.11 7.41-23.14 9.3-14.83 28.43-4.7 41.51-16.83 18.05 2.69-14.27-18.25 7.75-11.44 2.5-17.919 20.9 13.17 24.9-3.08 13-7.52-10.3-4.5-9.3-6.47-10.8-15.764-39.54-16.63-46.48-10.191-18.92-0.358-29.59-10.932-47.88-9.875-5.46-5.809-11.21-6.574-18.42-3.608 5.47-7.577-17.93-5.427-16.39 2.264-11.98-2.069-32.71 7.747-31.56-7.5-1.75-8.939-23.24 2.681-32.19-4.664-8.88 7.028-13.51-11.081-17.62-3.524 15.65 6.864-6.07-2.768-0.6 5.282-23.11 7.845-2.5-8.314 7.83-10.464 3.53-12.746-27.47-0.845-24.27-12.505l-1.65-0.156zm-146.72 142.25c5.97 4.76-11.58 9.07 0.28 17.28 0.74 5.85 9.49 1.03 1.58 7.55 13.82 18.33-20.3 14.01-8.33-2.99-7.24-8.3-8.78-22.16 6.47-21.84zm23.28 2.94c4.88 11.73-11.87 7.68 0 0z" />
		<path x="0" y="0" id="america" style="stroke:black;fill:grey" d="m226.48 56.307c-0.78 0.003-0.94 0.343-0.69 1.121 0.31 0.919 2.73 1.875 5.65 2.205 4.31 0.488 5.21 1.03 5.71 3.471 0.56 2.791 1.65 3.332 7.7 3.832 1.38 0.114 2.94 0.657 3.47 1.193 0.53 0.537 4.62 0.683 9.07 0.326 4.46-0.358 9.83-0.668 11.94-0.687 2.35-0.022 3.53-0.486 3.07-1.229-0.41-0.665-0.06-2.096 0.79-3.182 1.34-1.706 1.32-1.813-0.18-0.651-0.95 0.739-3.03 1.321-4.62 1.302-1.6-0.02-7.32 0.237-12.73 0.542-10.09 0.569-15.04-0.859-15.04-4.338 0-0.833-1.9-1.757-4.34-2.097-2.39-0.334-5.83-0.987-7.66-1.447-0.97-0.242-1.67-0.363-2.14-0.361z" />
		<path x="0" y="0" id="america" style="stroke:black;fill:grey" d="m252.73 73.516c-3.47 0.001-8.64 4.256-8.64 7.123 0 3.29 3.62 9.062 5.75 9.147 0.97 0.04 6.98 0.243 13.34 0.434 8.04 0.242 12.98 0.973 16.2 2.422 2.54 1.147 5.55 2.169 6.69 2.278 3.52 0.338 4.88 2.527 3.03 4.881-1.47 1.869-1.43 1.919 0.33 0.539 1.66-1.294 2.12-1.173 3.18 0.8 0.68 1.27 1.23 3.03 1.23 3.94 0 1.12 0.88 1.51 2.75 1.16 3.37-0.65 4.79 1.21 2.42 3.18-1.42 1.17-2.12 1.08-3.8-0.44-1.88-1.7-2.3-1.69-4.66-0.03-2.06 1.44-2.3 2.14-1.23 3.43 0.74 0.9 0.88 1.65 0.32 1.7-0.55 0.05-3.33 0.18-6.18 0.29-3.92 0.15-5.3 0.71-5.6 2.24-0.29 1.47 0.37 2.04 2.31 2.03 1.48-0.01 3.38-0.47 4.23-1.01 1.68-1.07 10.6 2.62 10.6 4.37 0 0.55 1.39 1.38 3.1 1.81 2.38 0.59 2.76 1 1.52 1.77-1.13 0.7-0.55 0.97 1.92 0.9 1.95-0.05 5.59 0.96 8.06 2.24 5.84 3.04 5.79 3.05 3.29 0.29-2.08-2.3-2.1-2.4 0.18-3 3.71-0.97 2.55-4.92-3.11-10.52-4.92-4.87-5.05-5.15-2.89-6.76 3.03-2.26 3.34-2.16 7.63 1.85 2.91 2.71 4.09 3.18 5.31 2.16 0.87-0.72 1.28-1.81 0.91-2.42-0.38-0.6 0.41-1.38 1.77-1.73 2.31-0.61 2.34-0.8 0.58-2.75-1.04-1.15-2.52-1.85-3.29-1.56-0.78 0.3-2.37-0.51-3.54-1.8-1.19-1.31-3.59-2.35-5.39-2.35-3.89 0-6.74-3.916-3.98-5.463 0.93-0.52 1.35-1.457 0.9-2.097-1.03-1.481-7.44-4.5-8.82-4.158-0.57 0.143-1.87-0.074-2.89-0.47-1.62-0.63-1.57-0.9 0.4-2.35 1.88-1.382 1.94-1.663 0.36-1.663-1.04 0-2.21 0.519-2.6 1.157-0.45 0.721-1.46 0.758-2.68 0.109-1.07-0.576-2.47-1.095-3.11-1.157-0.63-0.063-1.15-0.687-1.15-1.374 0-2.26-3.88-4.139-7.45-3.616-1.93 0.283-3.25 0.985-2.9 1.555 1.04 1.683-2.84 2.557-4.66 1.048-0.92-0.762-2.16-1.07-2.78-0.687-1.57 0.969-3.05-1.722-2.64-4.844 0.26-2.057-0.23-2.596-2.35-2.567-1.48 0.02-3.46 0.671-4.41 1.446-2.01 1.624-2.62 7.709-0.98 9.689 0.73 0.88 0.62 1.644-0.29 2.206-2.12 1.308-4.52-2.867-4.34-7.52l0.15-4.122 0.72 4.628c0.62 3.977 0.82 4.253 1.48 1.916 1.1-3.854-1.2-8.28-4.3-8.28z" />
		<path x="0" y="0" id="america" style="stroke:black;fill:grey" d="m231.44 83.625c-0.44-0.012-0.82 0.115-1.19 0.313-4.23 2.262-4.34 8.093-0.16 8.093 3.15 0 3.5 0.976 1.66 4.657-2.19 4.392-3.28 4.982-6.06 3.25-1.73-1.081-2.95-1.109-4.97-0.126-4.8 2.338-12.23 2.768-16.53 0.968-2.23-0.929-4.07-2.236-4.07-2.905 0.01-1.337-5.63-1.67-8.68-0.5-1.54 0.59-1.61 0.97-0.38 1.75 0.85 0.538 2.33 0.945 3.28 0.905 1.15-0.041 0.94-0.406-0.59-1.061-1.89-0.811-1.94-1.028-0.34-1.094 2.98-0.124 3.81 2.305 1.03 3.035-1.81 0.47-2.36 1.44-2.13 3.59 0.42 3.94-2.32 4.65-3.72 0.97-1.3-3.44-5.19-4.74-11.65-3.88-5.21 0.7-8.52-1.625-5.06-3.559 1.8-1.009 1.77-1.217-0.57-2.469-1.92-1.027-2.98-1.04-4.15-0.062-1.2 0.993-2.53 0.831-5.44-0.688-5.09-2.652-12.71-4.022-14.44-2.593-0.91 0.753-2.5 0.521-4.84-0.688-3.26-1.686-3.8-1.661-7.35 0.469-9.34 5.61-12.79 7.117-13.84 6.062-0.68-0.683 0.75-2.21 3.87-4.093 2.75-1.654 4.38-3.038 3.6-3.063s-3.08 1.004-5.13 2.25c-2.99 1.819-4.09 1.998-5.53 0.875-1.5-1.171-1.57-1.141-0.5 0.313 1.59 2.141 2.9 8.726 1.94 9.686-1.27 1.27-3.84-1.81-3.84-4.624 0-1.513-0.37-2.764-0.85-2.812-1.94-0.198-4.6-0.976-9.4-2.719-2.79-1.01-6.28-1.844-7.754-1.844-1.473 0-2.961-0.494-3.312-1.062s-3.756-1.071-7.594-1.125-8.055-0.608-9.312-1.282c-1.561-0.835-2.973-0.863-4.469-0.062-1.628 0.871-2.54 0.708-3.594-0.562-0.781-0.942-2.894-1.688-4.687-1.688-1.794 0-3.588-0.583-4-1.25-0.519-0.839-1.224-0.784-2.282 0.094-1.045 0.867-1.774 0.883-2.281 0.062-0.482-0.78-1.752-0.55-3.594 0.656-1.557 1.021-2.803 1.426-2.812 0.876-0.01-0.551-0.514-0.292-1.094 0.624-0.58 0.917-2.455 1.894-4.187 2.126-1.733 0.231-4.156 1.691-5.407 3.281-1.25 1.59-2.58 2.639-2.906 2.312-0.326-0.326-2.076 0.179-3.906 1.125l-3.313 1.719 3.75 3.215c3.57 3.08 7.093 5.06 9.438 5.29 2.078 0.19 1.932 2.88-0.219 4.03-1.57 0.84-3.047 0.7-5.313-0.47-2.065-1.07-3.845-1.28-5.124-0.6-1.076 0.58-3.009 1.39-4.282 1.82-2.24 0.75-2.22 0.81 0.282 1.78 1.548 0.59 2.341 1.62 1.968 2.59-0.959 2.5 9.945 3.52 11.719 1.09 1.718-2.34 3.619-1.12 3.375 2.19-0.186 2.52-5.967 7.01-7.75 6-0.454-0.25-1.89 0.61-3.219 1.94-1.686 1.69-2.197 3.19-1.656 4.97 1.19 3.91 4.233 6.79 6.531 6.19 1.14-0.3 2.515 0.24 3.063 1.21 1.36 2.44 8.734 4.88 10.969 3.63 2.412-1.35 3.361 0.53 2.031 4.03-1.246 3.28-5.656 6.63-12.157 9.34-2.483 1.04-4.25 2.16-3.937 2.47 0.546 0.55 6.576-1.92 10.187-4.15 0.955-0.59 3.583-2.06 5.844-3.28 4.723-2.57 11.684-9.31 10.906-10.57-0.288-0.46 0.241-1.49 1.188-2.28 0.947-0.78 1.719-2.11 1.719-2.9 0-2.3 3.265-4.37 5.5-3.5 1.941 0.75 1.927 0.86 0 2.28-1.765 1.3-2.891 5.28-1.5 5.28 2.564 0 6.548-2.62 6.031-3.97-1.12-2.92 4.071-5.03 5.938-2.41 1.452 2.04 6.447 3.86 12.531 4.57 3.253 0.37 8.421 1.94 11.501 3.5 3.79 1.92 6.01 2.48 6.94 1.72 0.95-0.8 1.93-0.29 3.25 1.71 1.03 1.58 1.87 3.23 1.87 3.63 0 1.18 5.09 5.05 6.69 5.09 2.45 0.07 5.17 7.74 3.53 9.97-0.57 0.78 0.22 1.81 2.09 2.66 2.99 1.36 3.02 1.41 0.91 3.94-1.18 1.4-1.44 1.95-0.56 1.18 2.2-1.92 6.56 0.3 4.78 2.44-1.45 1.74-0.47 3 2.31 3 2.91 0 12.66 9.6 12.66 12.47 0 2.75-1.78 4.36-2.88 2.59-1.61-2.6-2.31-0.85-2.43 6.03-0.07 3.98-0.32 10.37-0.54 14.19-0.41 7.25 2.43 15.8 5.07 15.28 0.7-0.14 1.34 0.88 1.43 2.25 0.27 3.81 5.1 10.83 8.25 12.03 1.56 0.59 2.49 1.63 2.07 2.32-0.46 0.74 0.08 1.09 1.37 0.87 1.68-0.29 2.57 1.01 4.22 6 1.16 3.5 3.12 7.44 4.34 8.75 1.62 1.73 1.89 2.74 0.97 3.66-0.91 0.91-0.28 2.12 2.32 4.44 1.97 1.75 3.62 4.26 3.65 5.59 0.07 2.59 6.46 8.42 7.78 7.09 0.44-0.44-0.11-1.28-1.22-1.9-1.1-0.62-2-1.68-2-2.35s-1.56-3.54-3.47-6.37c-1.9-2.83-3.47-5.53-3.46-5.97 0-0.45-1.18-2.97-2.6-5.66-1.99-3.77-2.28-5.22-1.22-6.28 1.59-1.58 4.97 0.5 4.97 3.06 0 0.81 2.33 4.68 5.19 8.57s5.22 7.44 5.22 7.96 1.75 3 3.87 5.5c5.13 6.03 6.56 8.9 5.82 11.72-0.8 3.04 2.92 5.99 15.5 12.22 8 3.97 10.07 4.58 11.84 3.47 1.75-1.09 2.87-0.8 6.31 1.53 5.45 3.7 12.87 7.44 14.69 7.44 2.86 0 7.91 6.15 7.91 9.62 0 2.87 0.25 3.2 1.68 2 1.41-1.16 1.94-0.95 2.97 1.32 0.79 1.74 2.4 2.84 4.28 3 1.65 0.13 3.59 0.74 4.32 1.34 0.88 0.74 1.75 0.37 2.68-1.12 3.11-4.97 8.37 2.48 8.19 11.59-0.08 4.06-0.91 6.18-3.9 9.84-2.11 2.57-4.48 7.19-5.26 10.29-1.27 5.08-1.22 5.76 0.66 6.81 1.97 1.1 1.93 1.26-0.37 3.03l-2.41 1.87 3.81 8.69c2.12 4.77 5.11 12.55 6.63 17.28 2.33 7.28 3.43 9.05 7.15 11.56 2.42 1.64 6.27 4.65 8.57 6.72l4.15 3.78-1.43 19.94c-0.79 10.97-1.55 22.82-1.72 26.32-0.21 4.15-1.4 8.54-3.47 12.62-2.29 4.51-3 7.21-2.5 9.72 0.38 1.91 0.07 5.21-0.69 7.31-1.08 2.99-1.08 4.39 0.03 6.47 1.7 3.18 1.2 15.39-0.72 17.31-1 1-1.51 0.84-2.09-0.69-0.62-1.6-1.01-1.72-1.78-0.5-1.25 1.98-1.28 3.6-0.06 2.85 1.32-0.82 7.43 5.95 6.59 7.31-0.38 0.62-1.36 0.86-2.22 0.53-1.22-0.46-1.48 0.65-1.19 4.94 0.21 3.05-0.25 6.26-0.97 7.13-1 1.21-0.91 1.49 0.38 1.21 2.47-0.52 8.26 3.71 7.56 5.53-1.08 2.83 1.21 1.62 2.56-1.34 0.73-1.59 1.85-2.87 2.5-2.87s1.19-1.23 1.19-2.72 1.04-3.66 2.31-4.81c1.28-1.16 2.09-2.38 1.79-2.69-0.31-0.31 1.05-2.38 3.03-4.63 3.49-3.98 3.51-4.09 1.15-4.97-4.66-1.72-4.22-10.28 0.53-10.28 1.01 0 1.6-1.29 1.6-3.56 0-2.62 0.63-3.77 2.34-4.22 1.98-0.52 2.08-0.8 0.66-1.91-0.93-0.71-1.86-2.35-2.07-3.62-0.29-1.86 0.28-2.31 2.97-2.31 3.21 0 4.48-1.18 5.79-5.44 0.42-1.37 2.45-2.2 6.56-2.75 9.45-1.25 11.69-5.43 6.34-11.78-3.48-4.13-2.72-5.36 1.72-2.81 3.05 1.75 3.57 1.74 7.28-0.03 4.03-1.92 6.92-5.89 13.03-18.07 2.48-4.93 2.85-6.71 1.91-8.78-0.65-1.43-0.84-3.18-0.41-3.87 0.86-1.39 9.11-7.19 10.22-7.19 0.38 0 1.26-0.79 1.97-1.72s3.36-1.88 5.88-2.13c4.39-0.43 4.64-0.72 7.71-7.84 2.61-6.04 3.22-9.14 3.25-16.87 0.03-6.67 0.51-9.79 1.6-10.44 0.85-0.51 3.45-3.75 5.78-7.16 5.58-8.18 5.89-14.26 0.84-16.87-1.87-0.97-4.07-2.72-4.9-3.91-1.12-1.59-3.41-2.31-8.63-2.69-6.08-0.44-7.64-1.04-10.81-4.22-4.47-4.46-6.48-4.6-9.53-0.71-1.65 2.09-3.22 2.84-5.38 2.59-3.67-0.43-3.63-2.41 0.07-3.28 1.46-0.35 2.82-1.51 3.03-2.6 0.56-2.92-1.53-2.43-5.94 1.44-2.16 1.9-4.24 3.14-4.63 2.75-1.21-1.22 6.21-10.93 7.69-10.06 0.76 0.44 0.34-0.39-0.94-1.84-1.27-1.45-2.19-2.94-2.06-3.35 1.36-4.25-6.18-10.59-12.59-10.59-3.19 0-5-0.95-8.32-4.35-2.33-2.38-5.51-5.57-7.09-7.09s-2.52-3.29-2.12-3.94c0.47-0.77-1.32-0.92-5.19-0.4-3.69 0.49-6.12 0.32-6.6-0.44-0.41-0.67-1.34-1.12-2.09-1-2.31 0.37-7.73-2.32-7.81-3.87-0.04-0.82-0.55-0.31-1.13 1.12-0.57 1.43-1.52 2.59-2.12 2.59s-0.85 0.99-0.53 2.19c0.82 3.15-1.59 4.12-3.13 1.25-1.01-1.9-0.88-3.01 0.57-5.22 2.37-3.63 0.62-3.63-2.79 0-1.45 1.55-3.34 2.5-4.21 2.16-1.47-0.56-2.02 0.34-4.6 7.62-0.44 1.25-1.24 0.97-3.47-1.12-2.61-2.46-3.32-2.58-7.5-1.47-4.4 1.18-4.76 1.09-7.62-2.31-2.75-3.27-2.95-4.17-2.28-10.72 0.72-7.06 0.72-7.17-2.44-8.06-1.76-0.5-5.06-0.92-7.28-0.97-3.79-0.09-4.01-0.36-3.66-3.6 0.21-1.9 0.78-3.98 1.28-4.62 0.5-0.65 1.25-3.36 1.66-6.06 0.66-4.36 0.49-4.91-1.5-4.91-5.09 0-8.03 2.1-8.41 6-0.34 3.51-0.73 3.85-5.5 4.66-6.43 1.09-9.51-0.7-12.75-7.41-2.28-4.71-3.22-14.71-1.53-16.41 0.46-0.45 0.68-2.6 0.5-4.71-0.29-3.36 0.23-4.16 4.06-6.54 5.21-3.21 6.5-3.5 10.6-2.22 1.7 0.54 4.85 1.26 7 1.63 3.48 0.6 3.72 0.51 2.34-1.16-1.31-1.58-1.18-2.11 0.75-3.53 1.46-1.06 3.3-1.37 5.16-0.84 1.59 0.45 4.27 0.77 5.97 0.69 3.51-0.17 6.57 3.52 7.15 8.68 0.45 3.97 3.14 8.41 5.1 8.41s1.83-1.51-0.88-10.97c-1.27-4.45-2.31-8.8-2.31-9.65 0-0.86 2.78-4.35 6.19-7.79 3.4-3.43 5.97-6.53 5.65-6.84-0.31-0.31 0.24-0.88 1.28-1.28 1.05-0.4 1.64-1.13 1.32-1.66-0.33-0.52-0.03-1.32 0.62-1.72 0.8-0.49 0.74-1.47-0.09-3.03-1.43-2.67-1-8.53 0.62-8.53 0.61 0 1.43 1.29 1.88 2.88 0.66 2.36 0.84 2.47 0.93 0.56 0.18-3.56 5.72-10.97 8.19-10.97 4.34 0 5.83-1.19 4.41-3.47-1.03-1.64-0.89-2.74 0.66-5.09 1.08-1.66 2.75-3 3.71-3s4.19-1.24 7.19-2.75c3.73-1.88 6.2-2.45 7.78-1.81 1.34 0.53 1.64 0.98 0.69 1.03-2.3 0.11-5.91 3.55-5.91 5.65 0 1.41 0.52 1.3 2.6-0.56 1.43-1.28 4.29-3.01 6.31-3.81s3.98-2.19 4.34-3.13c0.36-0.93 1.14-1.39 1.79-1 0.64 0.4 1.18 0.26 1.18-0.31 0-2.35-1.48-2.17-4.18 0.53-2.32 2.31-3.19 2.62-4.54 1.5-0.92-0.76-1.3-1.99-0.87-2.72 0.59-0.98 0.34-0.98-0.91 0-1.31 1.04-2.32 0.66-4.78-1.87-3.26-3.35-3.16-4.63 0.41-4.63 1.19 0 2.12-0.81 2.12-1.87 0-2.93-7.75-1.2-11.75 2.62-2.31 2.22-3.64 2.83-4.5 1.97-1.69-1.69 8.21-10.3 12.94-11.25 1.99-0.4 6.17-0.72 9.31-0.72 3.15 0 6.86-0.63 8.25-1.37 1.39-0.75 4.09-1.67 6-2.06 3.01-0.62 3.47-1.23 3.47-4.54 0-5.08-1.45-6.01-6.65-4.22-2.95 1.02-4.6 1.13-5.1 0.32-0.94-1.52 2.77-4.32 5.91-4.44 1.68-0.06 1.88-0.26 0.65-0.72-0.95-0.36-3.08-1.62-4.75-2.78-1.66-1.16-3.3-1.85-3.62-1.53s-1.41-0.73-2.47-2.35c-1.06-1.61-1.57-2.93-1.12-2.93 0.44 0-0.38-1.22-1.79-2.72s-2.83-4.21-3.15-6c-0.95-5.21-1.59-5.44-5.06-1.72-1.96 2.1-3.97 3.24-5 2.84-0.96-0.36-2.09-0.07-2.54 0.66-0.55 0.9-1.62 0.47-3.28-1.31-2.73-2.93-3.43-5.3-1.84-6.28 1.63-1.01 1.26-3.97-0.5-3.97-0.86 0-3.06-1.42-4.91-3.16-2.6-2.46-4.59-3.24-8.9-3.37-5.19-0.16-5.68 0.11-7.1 3.5-1 2.39-1.12 4.29-0.4 5.68 0.71 1.4 0.57 2.68-0.35 3.78-0.76 0.92-0.97 1.66-0.5 1.66 0.48 0 0.28 0.7-0.44 1.56-0.99 1.2-0.73 2.28 1.04 4.54 2.85 3.62 2.93 7.51 0.28 11.28-1.31 1.85-2.09 5.31-2.19 9.75-0.12 5.06-0.66 7.21-2.16 8.31-1.75 1.28-2.67 0.93-6.62-2.78-4.17-3.92-4.51-4.73-4.03-9.1l0.5-4.81-5.13-0.56c-3.35-0.38-7.31-2.04-11.37-4.85-3.42-2.35-6.72-3.97-7.35-3.59-1.4 0.87-2.94-1.47-3-4.56-0.03-1.73-0.68-2.21-2.62-1.94-1.91 0.27-2.9-0.43-3.72-2.59-1.61-4.25-0.29-7.04 7.19-14.88 1.75-1.84 2.9-3.79 2.56-4.34-0.85-1.37 3.54-3.56 5.56-2.78 0.9 0.34 2.87-0.41 4.41-1.66 3.04-2.48 3.2-2.29-3.47-4.34-3.06-0.94 0.61-2.92 4.69-2.53 3.6 0.34 3.92 0.71 4.25 4.71 0.26 3.16-0.13 4.55-1.47 5.07-1.48 0.56-1.2 1.06 1.37 2.4 3.04 1.59 3.35 1.52 5.41-1.21 2.04-2.72 2.34-2.8 4.84-1.16 1.48 0.96 3.22 1.41 3.85 1.03 1.83-1.13-3.87-6.37-7.78-7.16-1.98-0.39-4.39-1.95-5.38-3.47-1.88-2.87-1.65-3.14 2.5-2.81 2.74 0.22 9.6-2.91 9.6-4.37 0-0.5-0.73-1.93-1.63-3.16-1.18-1.61-1.26-2.648-0.37-3.718 1.65-1.992-2.07-4.794-6.41-4.843-2.75-0.032-3.05 0.282-2.09 2.062 0.85 1.59 0.35 3.007-1.94 5.939-2.82 3.6-3.06 3.69-4.5 1.72-0.85-1.16-1.56-3.236-1.56-4.628 0-1.391-0.75-3.149-1.66-3.906-1.34-1.109-2.03-0.791-3.6 1.594-2.08 3.188-4 2.972-4-0.438 0.01-1.191-1.08-2.411-2.5-2.781-1.95-0.511-2.2-0.965-1.18-2.187 1.79-2.162-2.45-6.888-5.5-6.969zm16.12 96.345c0.64 0 1.16 0.52 1.16 1.15 0 0.64-0.52 1.16-1.16 1.16-0.63 0-1.15-0.52-1.15-1.16 0-0.63 0.52-1.15 1.15-1.15zm2.35 6.31c0.12-0.01 0.24-0.01 0.37 0 0.63 0.04 1.32 0.28 2.28 0.72 1.65 0.75 3.77 3.06 4.75 5.12 1.5 3.15 2.7 3.95 7.22 4.79 2.97 0.54 5.61 1.65 5.88 2.47 0.27 0.81-0.15 1.33-0.97 1.15-0.86-0.18-1.79 1.17-2.19 3.16-0.69 3.46-0.7 3.44-2.16 0.81-0.8-1.45-1.86-2.37-2.4-2.03-0.55 0.34-0.76-0.38-0.44-1.59 0.38-1.44-0.26-2.67-1.75-3.47-1.93-1.04-2.61-0.68-4.38 1.97-1.15 1.73-2.4 5.48-2.74 8.34-0.4 3.3-0.97 4.65-1.57 3.72-0.52-0.81-0.77-2.89-0.59-4.63 0.18-1.73-0.01-3.64-0.41-4.28-1.01-1.63 1.57-4.88 4.31-5.41 6.58-1.26-3.65-5.64-11.37-4.87-4.29 0.43-4.52 0.36-1.97-0.75 1.59-0.69 4-2.3 5.34-3.56 1.14-1.07 1.92-1.59 2.79-1.66zm22.34 8.03c0.5-0.07 1 0.11 1.28 0.57 0.37 0.6 0.2 1.4-0.41 1.78-0.6 0.37-1.4 0.19-1.78-0.41-0.37-0.6-0.19-1.38 0.41-1.75 0.15-0.09 0.33-0.16 0.5-0.19zm9.87 8.97c0.14-0.01 0.23-0.01 0.32 0 0.24 0.04 0.32 0.21 0.22 0.47-0.35 0.89-2.35 2.07-4.47 2.66-2.13 0.58-5.65 2.44-7.81 4.09-2.17 1.65-4.62 3-5.44 3-2.24 0 3.11-3.68 11.18-7.75 2.99-1.5 5.06-2.36 6-2.47z" />
		<path x="0" y="0" id="isla" style="stroke:black;fill:grey" d="m455.2 108.55c-0.84 0-2.04 0.14-3.73 0.4-3.02 0.47-6.43 0.76-7.55 0.69-1.13-0.08-1.78 0.3-1.45 0.83 0.9 1.45-4.65 4.69-8.31 4.84l-3.22 0.15 3.47 0.72c1.91 0.41 3.21 1.2 2.89 1.77-0.67 1.19 2.93 2.81 6.51 2.93 1.35 0.04 5.25-1.06 8.68-2.46 6.95-2.84 8.68-4.49 6.18-5.89-0.93-0.52-1.7-1.75-1.7-2.71 0-0.9-0.38-1.27-1.77-1.27z" />
		<path x="0" y="0" id="australia" style="stroke:black; fill:grey" d="m872.89 395.44c-0.33 0.05-0.36 0.27-0.1 0.69 0.41 0.67-0.57 2.09-2.17 3.14-1.61 1.05-2.66 2.33-2.35 2.82 0.3 0.5-0.24 1.56-1.2 2.35-1.25 1.04-1.39 1.82-0.5 2.89 0.67 0.82 0.83 1.75 0.32 2.06-1.83 1.14-8.91-0.1-9.54-1.66-0.91-2.24-3.55-2.53-3.55-0.4 0 0.97-1.24 2.34-2.78 3.04-1.59 0.72-2.58 1.91-2.24 2.78 0.32 0.85 0.22 2.17-0.25 2.93-0.62 1.01-1.3 0.82-2.43-0.72-1.5-2.06-1.56-2.06-1.7 0.11-0.07 1.23-0.05 2.86 0.04 3.61 0.18 1.43-6.83 7.31-8.71 7.31-1.14 0-6.44 2.67-12.87 6.47-4.23 2.5-4.98 6.45-1.88 9.87 1.13 1.26 1.57 2.9 1.08 4.16-0.76 1.95-0.9 1.94-2.46-0.18-0.95-1.3-1.66-1.62-1.66-0.76 0 0.82 1.08 3.04 2.42 4.91 2.7 3.8 6.16 18.4 5.35 22.64-0.4 2.1 0.25 3.12 2.82 4.44 3.12 1.62 3.6 1.55 7.63-1.19 2.4-1.63 5.95-2.93 8.03-2.93 2.36 0 4.85-1.05 6.83-2.89 1.72-1.59 4.46-2.89 6.07-2.89 1.62 0 4.52-0.56 6.48-1.23 5.34-1.83 14.34 1.78 16.77 6.72 1.01 2.05 2.1 3.71 2.46 3.73 0.36 0.01 1.57-1.88 2.68-4.2 1.48-3.11 2.33-3.88 3.29-2.93 0.95 0.96 0.96 2.11-0.04 4.31-1.78 3.9-1.73 4.58 0.25 2.93 1.19-0.99 1.84-0.98 2.43-0.04 0.43 0.71 0.5 1.59 0.14 1.95-0.36 0.37 0.63 2.18 2.21 4.05 1.57 1.87 2.85 4.14 2.85 5.03 0 2.52 7.12 4.01 9.47 1.99 1.7-1.47 2.19-1.39 4.05 0.65 2.73 2.97 2.54 2.99 5.17-0.37 1.33-1.68 3.25-2.75 4.67-2.6 1.65 0.18 2.51-0.47 2.71-2.06 0.37-2.92 2.51-9.06 5.24-15.04 2.73-5.97 5.62-29.78 3.54-29.18-1.09 0.32-7.08-3.93-7.08-5.02 0-0.53-1.28-2.35-2.86-4.05-1.58-1.71-2.63-3.54-2.31-4.05 0.31-0.51-0.48-1.25-1.77-1.66-3.18-1.01-6.94-8.74-6.94-14.25 0-2.98-0.76-5.16-2.25-6.51-1.23-1.12-2.6-3.67-3.03-5.67-0.43-2.01-1.06-4.14-1.41-4.74-0.88-1.47-3.51 5.99-3.66 10.34-0.11 3.5-4 13.31-5.27 13.31-0.38 0-3.54-2.11-7.05-4.7-5.97-4.41-6.37-4.96-5.64-8.39 0.42-2.02 1.23-4.17 1.8-4.77 1.37-1.46 1.34-4.44-0.03-3.58-0.59 0.36-1.36 0.17-1.74-0.44-0.37-0.6-1.61-1.04-2.71-0.97-1.1 0.06-3.22-0.3-4.74-0.8-0.92-0.3-1.55-0.42-1.88-0.36z" />
		<path x="0" y="0" id="africa" style="stroke:black; fill:grey" d="m589.34 252.31c-10.41 0.01-24.92-10.72-30.75-4.87-8.59 8.64-15.82 0.2-24.31-1.53-11.01-2.26 0.93-18.9-15.53-14.94-10.12 2.43-20.82 7.75-30.43 6.62-8.4-0.99-11.32 2.75-14.78 8.46-4.18 6.89-5.95 15.44-12.54 22.03-7.18 7.18-9.44 15.89-8.78 26.72 0.61 9.89-2.92 17.43 4.58 25.98 6.63 7.57 9.3 22.07 22.42 21.62 10.75-0.36 23.74-8.64 31.6-4 5.64 3.33 10.91 1.58 13.83 5.72 5.26 7.45-1.35 20.18 6.15 29.25 5.97 7.22 10.16 19.21 4.75 28.82-6.15 10.93 1.46 20.99 2.79 31.76 1.53 12.33 12.69 23.46 12.05 34.21-0.6 10.18 10.27 7.82 17.13 6.7 11.95-1.94 20.15-12.67 22.89-23.25 2.44-9.42 5.51-16.24 6.38-26.54 0.75-8.98 21.26-14.72 15.94-28.77-3.95-10.41-6.05-22.07 2.25-31.7 7.72-8.95 17.59-15.96 22.33-27.44 2.16-5.25 8.72-17.97 7.42-17.94-6.4 0.1-20.77 6.87-25.37-3.97-4.47-10.55-15.19-17.51-15.91-29.71-0.58-9.77-13.46-20.12-11.89-26.81 0.61-2.6 2.89 1.21 0.71-3.32-0.51-1.06-0.75-0.63-1.48-1.41-0.73-0.77 6.64-1.69-1.45-1.69z" />
		<path x="0" y="0" id="europa" style="stroke:black; fill:grey" d="m569.94 86.094c-1.32 0.042-2.65 0.875-3.94 3.468-6.63-0.442-9.98 4.305-17.84 6.25-2.33 8.618-13.27 12.848-19.13 18.688 8.43 12.23-21.87 7.89-12.19 26.69 4.39 9.75 17.85-11.48 17.66 9.28 5.55 14.74 22.58-9.07 14.47-16.75 2.19-8.96 12.5-23.81 21.37-21.44-4.06 6.5-18.86 31.13 2.47 22.94 18.48-1.47 5.78 7.39-5.25 6 2.64 9.59-0.04 9.53-7.03 10.4-1.39 13.17-27.61 17.17-33.5 6.41-1.54-16.26 1.36 14.53-10.87 9.59-7.34 6.76-17.68 17.15-28.32 18.47 8.63 4.98 12.69 27.89-6.25 20-18.66 0.11-5.55 37.45 11.91 22.22 7.45-11.29 23.24-35.23 37.72-18.75 10.02 1.73 16.37 26.09 16.53 7.94 5.51 5.2-26.81-25.95-7.44-18.03 10.59 6.11 21.56 31.32 23.78 24.53-1 4.61-5.23 9.77 3.79 2.03-12.57-13.44 18.36-5.52 12.5-22.62 5.97-14 12.26-7.86 18.87-3.16-4.44-4.6 1.84-8.04 5.97-7.66l3.78-27.84 4.19-30.87 2.84-21c-3.91 2.56-8 4.39-11.78 2.59 7.85 16.22-25.13-17.881-2.66-6.94 29.64 2.68-4.42-19.971-16.62-15.686-2.99-3.215 2.49-4.832-7.22-6.188-2.1 3.031-4.92-0.655-7.81-0.562z"/>
		<path x="0" y="0" id="sudamerica" style="stroke:#000000; fill:grey" d="m295.16 316.59c-0.57 0-1.86 0.91-3.57 2.72-1.45 1.55-3.34 2.5-4.21 2.16-1.47-0.56-2.02 0.34-4.6 7.62-0.44 1.25-1.24 0.97-3.47-1.12-2.61-2.46-3.32-2.58-7.5-1.47-3.26 0.87-4.3 1.04-5.78-0.31l-2.06 2.65c0.21 0.05 0.41 0.08 0.62 0.1 1.65 0.13 3.59 0.74 4.32 1.34 0.88 0.74 1.75 0.37 2.68-1.12 3.11-4.97 8.37 2.48 8.19 11.59-0.08 4.06-0.91 6.18-3.9 9.84-2.11 2.57-4.48 7.19-5.26 10.29-1.27 5.08-1.22 5.76 0.66 6.81 1.97 1.1 1.93 1.26-0.37 3.03l-2.41 1.87 3.81 8.69c2.12 4.77 5.11 12.55 6.63 17.28 2.33 7.28 3.43 9.05 7.15 11.56 2.42 1.64 6.27 4.65 8.57 6.72l4.15 3.78-1.43 19.94c-0.79 10.97-1.55 22.82-1.72 26.32-0.21 4.15-1.4 8.54-3.47 12.62-2.29 4.51-3 7.21-2.5 9.72 0.38 1.91 0.07 5.21-0.69 7.31-1.08 2.99-1.08 4.39 0.03 6.47 1.7 3.18 1.2 15.39-0.72 17.31-1 1-1.51 0.84-2.09-0.69-0.62-1.6-1.01-1.72-1.78-0.5-1.25 1.98-1.28 3.6-0.06 2.85 1.32-0.82 7.43 5.95 6.59 7.31-0.38 0.62-1.36 0.86-2.22 0.53-1.22-0.46-1.48 0.65-1.19 4.94 0.21 3.05-0.25 6.26-0.97 7.13-1 1.21-0.91 1.49 0.38 1.21 2.47-0.52 8.26 3.71 7.56 5.53-1.08 2.83 1.21 1.62 2.56-1.34 0.73-1.59 1.85-2.87 2.5-2.87s1.19-1.23 1.19-2.72 1.04-3.66 2.31-4.81c1.28-1.16 2.09-2.38 1.79-2.69-0.31-0.31 1.05-2.38 3.03-4.63 3.49-3.98 3.51-4.09 1.15-4.97-4.66-1.72-4.22-10.28 0.53-10.28 1.01 0 1.6-1.29 1.6-3.56 0-2.62 0.63-3.77 2.34-4.22 1.98-0.52 2.08-0.8 0.66-1.91-0.93-0.71-1.86-2.35-2.07-3.62-0.29-1.86 0.28-2.31 2.97-2.31 3.21 0 4.48-1.18 5.79-5.44 0.42-1.37 2.45-2.2 6.56-2.75 9.45-1.25 11.69-5.43 6.34-11.78-3.48-4.13-2.72-5.36 1.72-2.81 3.05 1.75 3.57 1.74 7.28-0.03 4.03-1.92 6.92-5.89 13.03-18.07 2.48-4.93 2.85-6.71 1.91-8.78-0.65-1.43-0.84-3.18-0.41-3.87 0.86-1.39 9.11-7.19 10.22-7.19 0.38 0 1.26-0.79 1.97-1.72s3.36-1.88 5.88-2.13c4.39-0.43 4.64-0.72 7.71-7.84 2.61-6.04 3.22-9.14 3.25-16.87 0.03-6.67 0.51-9.79 1.6-10.44 0.85-0.51 3.45-3.75 5.78-7.16 5.58-8.18 5.89-14.26 0.84-16.87-1.87-0.97-4.07-2.72-4.9-3.91-1.12-1.59-3.41-2.31-8.63-2.69-6.08-0.44-7.64-1.04-10.81-4.22-4.47-4.46-6.48-4.6-9.53-0.71-1.65 2.09-3.22 2.84-5.38 2.59-3.67-0.43-3.63-2.41 0.07-3.28 1.46-0.35 2.82-1.51 3.03-2.6 0.56-2.92-1.53-2.43-5.94 1.44-2.16 1.9-4.24 3.14-4.63 2.75-1.21-1.22 6.21-10.93 7.69-10.06 0.76 0.44 0.34-0.39-0.94-1.84-1.27-1.45-2.19-2.94-2.06-3.35 1.36-4.25-6.18-10.59-12.59-10.59-3.19 0-5-0.95-8.32-4.35-2.33-2.38-5.51-5.57-7.09-7.09s-2.52-3.29-2.12-3.94c0.47-0.77-1.32-0.92-5.19-0.4-3.69 0.49-6.12 0.32-6.6-0.44-0.41-0.67-1.34-1.12-2.09-1-2.31 0.37-7.73-2.32-7.81-3.87-0.04-0.82-0.55-0.31-1.13 1.12-0.57 1.43-1.52 2.59-2.12 2.59s-0.85 0.99-0.53 2.19c0.82 3.15-1.59 4.12-3.13 1.25-1.01-1.9-0.88-3.01 0.57-5.22 1.18-1.81 1.34-2.72 0.78 -2.72z"/>
</svg>