<svg viewBox="0 0 408.08986 408"
	xmlns="http://www.w3.org/2000/svg">
	<path d="m400.039062 8.082031c-31.203124-31.199219-144.320312 31.199219-252.570312 139.429688-108.246094 108.234375-170.632812 221.371093-139.429688 252.570312 31.199219 31.199219 144.320313-31.199219 252.566407-139.433593 108.25-108.230469 170.671875-221.328126 139.433593-252.566407zm-162.058593 229.945313c-93.320313 93.308594-184.167969 153.765625-202.910157 135.023437-18.746093-18.746093 41.710938-109.601562 135.023438-202.914062s184.167969-153.765625 202.910156-135.023438c18.746094 18.746094-41.710937 109.59375-135.023437 202.914063zm0 0" fill="#fbedbf">
	</path>
	<path d="m372.039062 204.082031c0 92.785157-75.21875 168-168 168-92.785156 0-168-75.214843-168-168 0-92.785156 75.214844-168 168-168 92.78125 0 168 75.214844 168 168zm0 0" fill="#e6a63b">
	</path>
	<path d="m348.039062 188.082031c.015626-51.390625-23.550781-99.945312-63.9375-131.726562-76.640624-41.585938-172.359374-17.601563-220.332031 55.210937-47.976562 72.8125-32.246093 170.230469 36.203125 224.242188 52.066406 28.195312 115.128906 26.90625 166-3.390625 50.875-30.296875 82.046875-85.125 82.066406-144.335938zm0 0" fill="#fbb540">
	</path>
	<path d="m260.339844 45.953125c-18.0625-6.492187-37.105469-9.832031-56.300782-9.871094-4.632812 0-9.175781.328125-13.714843.695313l-72.253907 72.257812c-6.652343 6.644532-11.183593 15.113282-13.023437 24.335938-1.847656 9.207031-6.371094 17.664062-13.007813 24.308594l-55.511718 55.515624c1.246094 24.320313 7.796875 48.078126 19.199218 69.597657l104-112.3125c10.664063-11.519531 19.636719-24.492188 26.65625-38.535157 7.972657-15.925781 18.453126-30.464843 31.039063-43.0625zm0 0" fill="#d18030">
	</path>
	<path d="m310.980469 74.480469-42.648438 42.640625c-12.609375 12.617187-23.109375 27.179687-31.085937 43.136718-7.019532 14.039063-15.992188 27.011719-26.65625 38.527344l-119.65625 129.296875c19.179687 17.5625 42.1875 30.414063 67.199218 37.535157l26.703126-28.976563c12.089843-13.109375 26.210937-24.183594 41.824218-32.800781 13.730469-7.601563 26.316406-17.113282 37.378906-28.246094l104.613282-105.160156c-7.679688-37.640625-28.035156-71.507813-57.671875-95.953125zm0 0" fill="#bb722b">
	</path>
	<path d="m348.039062 188.082031c.03125-40.300781-14.515624-79.253906-40.960937-109.664062l-38.746094 38.734375c-12.609375 12.617187-23.109375 27.183594-31.085937 43.136718-7.019532 14.039063-15.992188 27.011719-26.65625 38.527344l-119.65625 129.265625c3.070312 2.808594 6.28125 5.457031 9.550781 8 20.683594 11.128907 43.476563 17.769531 66.898437 19.488281l17.453126-18.929687c12.089843-13.109375 26.210937-24.183594 41.824218-32.800781 13.730469-7.601563 26.316406-17.113282 37.378906-28.246094l83.839844-84.273438c.015625-1.085937.160156-2.144531.160156-3.238281zm0 0" fill="#d18030">
	</path>
	<path d="m371.367188 217.34375-82.59375 83.027344c-10.539063 10.585937-22.523438 19.628906-35.601563 26.855468-16.367187 9.03125-31.171875 20.648438-43.839844 34.398438l-9.429687 10.242188c1.382812 0 2.734375.207031 4.136718.207031 6.191407-.023438 12.375-.378907 18.527344-1.074219 11.164063-11.84375 24.097656-21.886719 38.335938-29.773438 14.398437-7.964843 27.597656-17.933593 39.199218-29.601562l66.824219-67.199219c2.21875-8.890625 3.703125-17.945312 4.441407-27.082031zm0 0" fill="#bb722b">
	</path>
	<path d="m253.171875 327.226562c-11.980469 6.625-23.132813 14.640626-33.230469 23.886719 51.109375-12.507812 93.421875-48.214843 114.34375-96.496093l-45.511718 45.753906c-10.539063 10.585937-22.523438 19.628906-35.601563 26.855468zm0 0" fill="#d18030">
	</path>
	<path d="m374.855469 118.898438-20.671875-20.671876c-33.644532 50.605469-72.597656 97.472657-116.203125 139.800782-41.390625 42.511718-87.015625 80.691406-136.167969 113.933594l23.34375 19.097656c49.097656-31.675782 94.527344-68.703125 135.449219-110.402344 43.535156-42.585938 81.882812-90.171875 114.25-141.757812zm0 0" fill="#fbedbf">
	</path>
</svg>
