<svg viewBox="0 0 408.08986 408"
	xmlns="http://www.w3.org/2000/svg">
	<path fill="#fbedbf" d="m400.039062 8.082031c-31.203124-31.199219-144.320312 31.199219-252.570312 139.429688-108.246094 108.234375-170.632812 221.371093-139.429688 252.570312 31.199219 31.199219 144.320313-31.199219 252.566407-139.433593 108.25-108.230469 170.671875-221.328126 139.433593-252.566407zm-162.058593 229.945313c-93.320313 93.308594-184.167969 153.765625-202.910157 135.023437-18.746093-18.746093 41.710938-109.601562 135.023438-202.914062s184.167969-153.765625 202.910156-135.023438c18.746094 18.746094-41.710937 109.59375-135.023437 202.914063zm0 0" >
	</path>

	<path fill="#fbedbf" d="m374.855469 118.898438-20.671875-20.671876c-33.644532 50.605469-72.597656 97.472657-116.203125 139.800782-41.390625 42.511718-87.015625 80.691406-136.167969 113.933594l23.34375 19.097656c49.097656-31.675782 94.527344-68.703125 135.449219-110.402344 43.535156-42.585938 81.882812-90.171875 114.25-141.757812zm0 0" >
	</path>
</svg>