 <svg version="1.1" baseProfile="full" width="220" height="200"
  xmlns="http://www.w3.org/2000/svg" viewBox="900 -1500 950 1200">
  
 
  <g transform="matrix(1.5 -.5 .1 .8 -550 -750)">
    <path id="path30933" style="fill:#ada293" d="m1073.3 517.75c-154.94 12.37-263.8 41.37-263.8 75.13 0 44.98 193.3 81.5 431.5 81.5s431.5-36.52 431.5-81.5c0-32.92-103.7-61.24-252.5-74.1 0.3 0.57 0.5 1.18 0.8 1.75 143.2 12.75 242.7 40.19 242.7 72.06 0 44-189.1 79.72-422 79.72s-422-35.72-422-79.72c0-32.64 104.18-60.68 253-73 0.3-0.6 0.5-1.24 0.8-1.84z"/>
    <path id="path31697" style="fill:#ada393" d="m1072.3 520.06c-147.5 12.31-250.68 40.13-250.68 72.53 0 43.78 188.08 79.32 419.88 79.32s419.9-35.54 419.9-79.32c0-31.63-98.5-58.89-240.4-71.62 1.4 2.98 2.7 5.97 4 9.03 116.5 12.21 195.4 35.66 195.4 62.59 0 39.51-169.7 71.57-378.9 71.57s-378.91-32.06-378.91-71.57c0-27.7 83.66-51.7 205.71-63.59 1.2-3.04 2.6-6 4-8.94z"/>
    <path id="path31705" style="fill-opacity:.72973;fill:#343423" d="m1061.4 550.09c-66 9.99-108.37 25.3-108.37 42.5 0 30.08 129.27 54.47 288.47 54.47s288.5-24.39 288.5-54.47c0-16.28-38.1-30.85-98.2-40.84 1 3.96 1.9 7.96 2.5 12.03 33.3 7.93 53.3 17.92 53.3 28.81 0 25.66-110.3 46.47-246.1 46.47s-246.06-20.81-246.06-46.47c0-11.95 24.16-22.82 63.46-31.06 0.7-3.86 1.5-7.68 2.5-11.44z"/>
    <path id="path31701" style="fill:#d8d4c1" d="m1067.4 530.84c-116.74 11.78-196.31 35.02-196.31 61.75 0 38.62 165.91 69.97 370.41 69.97s370.4-31.35 370.4-69.97c0-25.93-75-48.54-186.1-60.62 2.5 6.41 4.4 13.04 6 19.78 60.1 9.99 98.2 24.56 98.2 40.84 0 30.08-129.3 54.47-288.5 54.47s-288.47-24.39-288.47-54.47c0-17.2 42.37-32.51 108.37-42.5 1.7-6.57 3.6-13.03 6-19.25z"/>
  </g>

</svg>